<svg width="90" height="55" viewBox="0 0 90 55" fill="none" xmlns="http://www.w3.org/2000/svg">
<path fill-rule="evenodd" clip-rule="evenodd" d="M56.954 34.1521C57.4579 38.8791 53.7529 43 48.9991 43L41.0009 43C36.2471 43 32.5421 38.8791 33.0459 34.1521L34.0666 24.576C34.2834 22.5425 35.9991 21 38.0441 21H51.9559C54.0009 21 55.7166 22.5425 55.9333 24.5761L56.954 34.1521ZM39.1377 29C39.1377 28.4477 39.5854 28 40.1377 28H49.8623C50.4146 28 50.8623 28.4477 50.8623 29C50.8623 29.5523 50.4146 30 49.8623 30H40.1377C39.5854 30 39.1377 29.5523 39.1377 29ZM40.1377 32C39.5854 32 39.1377 32.4477 39.1377 33C39.1377 33.5523 39.5854 34 40.1377 34H49.8623C50.4146 34 50.8623 33.5523 50.8623 33C50.8623 32.4477 50.4146 32 49.8623 32H40.1377Z" fill="#FFC700"/>
<path fill-rule="evenodd" clip-rule="evenodd" d="M48.8597 21.3368C48.9505 20.9201 49 20.4735 49 20C49 16.9382 46.931 15 45 15C43.069 15 41 16.9382 41 20C41 20.4735 41.0495 20.9201 41.1403 21.3368C40.4501 21.5425 39.8222 21.8016 39.2757 22.1039C39.0966 21.4398 39 20.7331 39 20C39 16.134 41.6863 13 45 13C48.3137 13 51 16.134 51 20C51 20.7331 50.9034 21.4398 50.7243 22.1039C50.1778 21.8016 49.5499 21.5425 48.8597 21.3368Z" fill="#FFC700"/>
</svg>
